 <svg width="136" height="24" viewBox="0 0 136 24" fill="none" xmlns="http://www.w3.org/2000/svg">
                        <path
                            d="M29.8984 0.343596V0.983595C29.4931 1.06893 29.0451 1.31426 28.5544 1.71959C28.0637 2.1036 27.6691 2.78626 27.3704 3.7676L21.3224 23.1596C21.2797 23.1596 21.2371 23.1596 21.1944 23.1596C21.1517 23.1596 21.1091 23.1596 21.0664 23.1596C21.0237 23.1596 20.9811 23.1596 20.9384 23.1596C20.8957 23.1596 20.8531 23.1596 20.8104 23.1596L14.0264 3.0316C13.7491 2.19959 13.4397 1.65559 13.0984 1.3996C12.7571 1.14359 12.4371 1.00493 12.1384 0.983595V0.343596C12.5224 0.364929 13.0024 0.386262 13.5784 0.407595C14.1544 0.428928 14.7091 0.439594 15.2424 0.439594C16.0744 0.439594 16.8531 0.428928 17.5784 0.407595C18.3037 0.386262 18.8904 0.364929 19.3384 0.343596V0.983595C18.6984 1.00493 18.1864 1.06893 17.8024 1.17559C17.4397 1.28226 17.2264 1.51693 17.1624 1.87959C17.1197 2.24226 17.2264 2.8396 17.4824 3.67159L22.2504 18.4236L21.8024 18.8076L26.0264 5.5276C26.4104 4.35426 26.5811 3.44759 26.5384 2.80759C26.5171 2.14626 26.2824 1.68759 25.8344 1.43159C25.3864 1.15426 24.7144 1.00493 23.8184 0.983595V0.343596C24.4371 0.364929 25.0664 0.386262 25.7064 0.407595C26.3464 0.428928 26.9437 0.439594 27.4984 0.439594C28.0531 0.439594 28.5117 0.428928 28.8744 0.407595C29.2371 0.386262 29.5784 0.364929 29.8984 0.343596ZM7.53039 0.343596V0.983595C6.97572 1.02626 6.57039 1.13293 6.31439 1.30359C6.07972 1.47426 5.96239 1.7516 5.96239 2.1356C5.98372 2.49826 6.10106 3.01026 6.31439 3.67159L11.2744 18.8076L10.4744 19.6076L14.9544 5.30359L15.4344 6.07159L10.1544 23.1596C10.1117 23.1596 10.0691 23.1596 10.0264 23.1596C9.98372 23.1596 9.94106 23.1596 9.89839 23.1596C9.85572 23.1596 9.81306 23.1596 9.77039 23.1596C9.72773 23.1596 9.68506 23.1596 9.64239 23.1596L2.85839 3.0316C2.58106 2.19959 2.22906 1.65559 1.80239 1.3996C1.37572 1.14359 0.991724 1.00493 0.650391 0.983595V0.343596C1.07706 0.364929 1.59972 0.386262 2.21839 0.407595C2.85839 0.428928 3.47706 0.439594 4.07439 0.439594C4.77839 0.439594 5.42906 0.428928 6.02639 0.407595C6.64506 0.386262 7.14639 0.364929 7.53039 0.343596Z"
                            fill="#0785E1" />
                        <path
                            d="M47.1551 0.343596C47.0698 1.09026 47.0058 1.81559 46.9631 2.51959C46.9418 3.22359 46.9311 3.75693 46.9311 4.11959C46.9311 4.50359 46.9418 4.87693 46.9631 5.2396C46.9845 5.58093 47.0058 5.86893 47.0271 6.1036H46.2911C46.1631 4.84493 45.9818 3.85293 45.7471 3.12759C45.5125 2.38093 45.1071 1.85826 44.5311 1.5596C43.9765 1.23959 43.1338 1.07959 42.0031 1.07959H39.3471C38.6218 1.07959 38.0671 1.14359 37.6831 1.2716C37.3205 1.37826 37.0751 1.62359 36.9471 2.0076C36.8191 2.37026 36.7551 2.94626 36.7551 3.73559V19.6076C36.7551 20.3756 36.8191 20.9516 36.9471 21.3356C37.0751 21.7196 37.3205 21.9756 37.6831 22.1036C38.0671 22.2103 38.6218 22.2636 39.3471 22.2636H41.6831C43.0271 22.2636 44.0405 22.0823 44.7231 21.7196C45.4271 21.3569 45.9285 20.7703 46.2271 19.9596C46.5471 19.1276 46.7818 18.0076 46.9311 16.5996H47.6671C47.6031 17.1756 47.5711 17.9436 47.5711 18.9036C47.5711 19.3089 47.5818 19.8956 47.6031 20.6636C47.6458 21.4103 47.7098 22.1889 47.7951 22.9996C46.7071 22.9569 45.4805 22.9356 44.1151 22.9356C42.7498 22.9143 41.5338 22.9036 40.4671 22.9036C39.9978 22.9036 39.3898 22.9036 38.6431 22.9036C37.9178 22.9036 37.1285 22.9143 36.2751 22.9356C35.4218 22.9356 34.5578 22.9463 33.6831 22.9676C32.8085 22.9676 31.9765 22.9783 31.1871 22.9996V22.3596C31.9125 22.3169 32.4565 22.2316 32.8191 22.1036C33.2031 21.9756 33.4591 21.7196 33.5871 21.3356C33.7151 20.9516 33.7791 20.3756 33.7791 19.6076V3.73559C33.7791 2.94626 33.7151 2.37026 33.5871 2.0076C33.4591 1.62359 33.2031 1.3676 32.8191 1.2396C32.4565 1.09026 31.9125 1.00493 31.1871 0.983595V0.343596C31.9765 0.364929 32.8085 0.386262 33.6831 0.407595C34.5578 0.407595 35.4218 0.418261 36.2751 0.439594C37.1285 0.439594 37.9178 0.439594 38.6431 0.439594C39.3898 0.439594 39.9978 0.439594 40.4671 0.439594C41.4485 0.439594 42.5578 0.439594 43.7951 0.439594C45.0538 0.418261 46.1738 0.386262 47.1551 0.343596ZM41.6511 11.2876C41.6511 11.2876 41.6511 11.3943 41.6511 11.6076C41.6511 11.8209 41.6511 11.9276 41.6511 11.9276H35.7951C35.7951 11.9276 35.7951 11.8209 35.7951 11.6076C35.7951 11.3943 35.7951 11.2876 35.7951 11.2876H41.6511ZM42.5791 7.06359C42.4938 8.2796 42.4511 9.20759 42.4511 9.8476C42.4725 10.4876 42.4831 11.0743 42.4831 11.6076C42.4831 12.1409 42.4938 12.7276 42.5151 13.3676C42.5365 14.0076 42.5898 14.9356 42.6751 16.1516H41.9391C41.8538 15.4689 41.7471 14.8076 41.6191 14.1676C41.5125 13.5063 41.2565 12.9729 40.8511 12.5676C40.4671 12.1409 39.8058 11.9276 38.8671 11.9276V11.2876C39.5711 11.2876 40.1045 11.1489 40.4671 10.8716C40.8511 10.5729 41.1285 10.1996 41.2991 9.75159C41.4698 9.30359 41.5871 8.84493 41.6511 8.3756C41.7151 7.88493 41.7791 7.4476 41.8431 7.06359H42.5791Z"
                            fill="#0785E1" />
                        <path
                            d="M59.6791 0.183594L67.4871 20.3116C67.8071 21.1223 68.1698 21.6663 68.5751 21.9436C68.9805 22.1996 69.3538 22.3383 69.6951 22.3596V22.9996C69.2685 22.9569 68.7458 22.9356 68.1271 22.9356C67.5085 22.9143 66.8898 22.9036 66.2711 22.9036C65.4391 22.9036 64.6605 22.9143 63.9351 22.9356C63.2098 22.9356 62.6231 22.9569 62.1751 22.9996V22.3596C63.2631 22.3169 63.9565 22.1356 64.2551 21.8156C64.5538 21.4743 64.4898 20.7596 64.0631 19.6716L58.1111 3.7676L58.6231 3.35159L53.0551 17.8156C52.7138 18.6689 52.5111 19.3943 52.4471 19.9916C52.3831 20.5676 52.4365 21.0263 52.6071 21.3676C52.7991 21.7089 53.1085 21.9543 53.5351 22.1036C53.9831 22.2529 54.5378 22.3383 55.1991 22.3596V22.9996C54.6018 22.9569 53.9725 22.9356 53.3111 22.9356C52.6711 22.9143 52.0738 22.9036 51.5191 22.9036C50.9858 22.9036 50.5271 22.9143 50.1431 22.9356C49.7805 22.9356 49.4391 22.9569 49.1191 22.9996V22.3596C49.5458 22.2529 49.9831 22.0076 50.4311 21.6236C50.8791 21.2183 51.2845 20.5356 51.6471 19.5756L59.1671 0.183594C59.2525 0.183594 59.3378 0.183594 59.4231 0.183594C59.5085 0.183594 59.5938 0.183594 59.6791 0.183594ZM63.5831 13.7836V14.4236H54.0471L54.3671 13.7836H63.5831Z"
                            fill="#0785E1" />
                        <path
                            d="M70.2184 0.343596C70.6664 0.364929 71.2531 0.386262 71.9784 0.407595C72.7037 0.428928 73.4184 0.439594 74.1224 0.439594C75.1251 0.439594 76.0851 0.428928 77.0024 0.407595C77.9197 0.386262 78.5704 0.375595 78.9544 0.375595C80.6824 0.375595 82.1117 0.620928 83.2424 1.1116C84.3944 1.60226 85.2477 2.27426 85.8024 3.12759C86.3784 3.95959 86.6664 4.89826 86.6664 5.94359C86.6664 6.58359 86.5384 7.26626 86.2824 7.9916C86.0264 8.71693 85.5784 9.39959 84.9384 10.0396C84.3197 10.6796 83.4664 11.2129 82.3784 11.6396C81.2904 12.0449 79.9144 12.2476 78.2504 12.2476H75.1784V11.6076H77.9304C79.4451 11.6076 80.5971 11.3729 81.3864 10.9036C82.1971 10.4129 82.7411 9.77293 83.0184 8.98359C83.3171 8.17293 83.4664 7.27693 83.4664 6.2956C83.4664 4.61026 83.0611 3.30893 82.2504 2.39159C81.4611 1.45293 80.0957 0.983595 78.1544 0.983595C77.1731 0.983595 76.5331 1.16493 76.2344 1.5276C75.9357 1.89026 75.7864 2.62626 75.7864 3.73559V19.6076C75.7864 20.3756 75.8504 20.9516 75.9784 21.3356C76.1064 21.7196 76.3517 21.9756 76.7144 22.1036C77.0984 22.2316 77.6531 22.3169 78.3784 22.3596V22.9996C77.8877 22.9569 77.2691 22.9356 76.5224 22.9356C75.7971 22.9143 75.0611 22.9036 74.3144 22.9036C73.4824 22.9036 72.7037 22.9143 71.9784 22.9356C71.2531 22.9356 70.6664 22.9569 70.2184 22.9996V22.3596C70.9437 22.3169 71.4877 22.2316 71.8504 22.1036C72.2344 21.9756 72.4904 21.7196 72.6184 21.3356C72.7464 20.9516 72.8104 20.3756 72.8104 19.6076V3.73559C72.8104 2.94626 72.7464 2.37026 72.6184 2.0076C72.4904 1.62359 72.2344 1.3676 71.8504 1.2396C71.4877 1.09026 70.9437 1.00493 70.2184 0.983595V0.343596ZM75.3064 11.7036C76.4584 11.7463 77.3651 11.7996 78.0264 11.8636C78.6877 11.9063 79.2211 11.9489 79.6264 11.9916C80.0531 12.0343 80.4584 12.0876 80.8424 12.1516C82.2717 12.3863 83.2957 12.8236 83.9144 13.4636C84.5544 14.0823 85.0237 15.0529 85.3224 16.3756L86.1224 19.6396C86.3357 20.5783 86.5491 21.2609 86.7624 21.6876C86.9971 22.0929 87.3491 22.2849 87.8184 22.2636C88.1811 22.2423 88.4797 22.1249 88.7144 21.9116C88.9704 21.6983 89.2371 21.4103 89.5144 21.0476L89.9944 21.3996C89.5464 22.0609 89.0771 22.5729 88.5864 22.9356C88.1171 23.2769 87.4451 23.4476 86.5704 23.4476C85.7811 23.4476 85.0877 23.2129 84.4904 22.7436C83.8931 22.2743 83.4451 21.3569 83.1464 19.9916L82.4424 16.7916C82.2504 15.8743 82.0264 15.0849 81.7704 14.4236C81.5357 13.7409 81.1944 13.2076 80.7464 12.8236C80.3197 12.4396 79.6797 12.2476 78.8264 12.2476H75.3704L75.3064 11.7036Z"
                            fill="#0785E1" />
                        <path
                            d="M116.152 0.343596V0.983595C115.427 1.00493 114.872 1.09026 114.488 1.2396C114.126 1.3676 113.88 1.62359 113.752 2.0076C113.624 2.37026 113.56 2.94626 113.56 3.73559V19.6076C113.56 20.3756 113.624 20.9516 113.752 21.3356C113.88 21.7196 114.126 21.9756 114.488 22.1036C114.872 22.2316 115.427 22.3169 116.152 22.3596V22.9996C115.662 22.9569 115.043 22.9356 114.296 22.9356C113.571 22.9143 112.835 22.9036 112.088 22.9036C111.256 22.9036 110.478 22.9143 109.752 22.9356C109.027 22.9356 108.44 22.9569 107.992 22.9996V22.3596C108.718 22.3169 109.262 22.2316 109.624 22.1036C110.008 21.9756 110.264 21.7196 110.392 21.3356C110.52 20.9516 110.584 20.3756 110.584 19.6076V2.0076L110.712 2.10359L102.872 23.1596H102.36L94.2964 2.39159V19.2876C94.2964 20.0556 94.3604 20.6636 94.4884 21.1116C94.6377 21.5383 94.9151 21.8476 95.3204 22.0396C95.7471 22.2103 96.3764 22.3169 97.2084 22.3596V22.9996C96.8244 22.9569 96.3231 22.9356 95.7044 22.9356C95.0857 22.9143 94.4991 22.9036 93.9444 22.9036C93.4111 22.9036 92.8671 22.9143 92.3124 22.9356C91.7791 22.9356 91.3311 22.9569 90.9684 22.9996V22.3596C91.6937 22.3169 92.2377 22.2103 92.6004 22.0396C92.9844 21.8476 93.2404 21.5383 93.3684 21.1116C93.4964 20.6636 93.5604 20.0556 93.5604 19.2876V3.73559C93.5604 2.94626 93.4964 2.37026 93.3684 2.0076C93.2404 1.62359 92.9844 1.3676 92.6004 1.2396C92.2377 1.09026 91.6937 1.00493 90.9684 0.983595V0.343596C91.3311 0.364929 91.7791 0.386262 92.3124 0.407595C92.8671 0.428928 93.4111 0.439594 93.9444 0.439594C94.4137 0.439594 94.8937 0.428928 95.3844 0.407595C95.8964 0.386262 96.3231 0.364929 96.6644 0.343596L103.928 19.4796L103.384 19.7356L110.584 0.439594C110.84 0.439594 111.086 0.439594 111.32 0.439594C111.576 0.439594 111.832 0.439594 112.088 0.439594C112.835 0.439594 113.571 0.428928 114.296 0.407595C115.043 0.386262 115.662 0.364929 116.152 0.343596Z"
                            fill="#1F1F1F" />
                        <path
                            d="M134.811 0.343596C134.726 1.09026 134.662 1.81559 134.619 2.51959C134.598 3.22359 134.587 3.75693 134.587 4.11959C134.587 4.50359 134.598 4.87693 134.619 5.2396C134.641 5.58093 134.662 5.86893 134.683 6.1036H133.947C133.819 4.84493 133.638 3.85293 133.403 3.12759C133.169 2.38093 132.763 1.85826 132.187 1.5596C131.633 1.23959 130.79 1.07959 129.659 1.07959H127.003C126.278 1.07959 125.723 1.14359 125.339 1.2716C124.977 1.37826 124.731 1.62359 124.603 2.0076C124.475 2.37026 124.411 2.94626 124.411 3.73559V19.6076C124.411 20.3756 124.475 20.9516 124.603 21.3356C124.731 21.7196 124.977 21.9756 125.339 22.1036C125.723 22.2103 126.278 22.2636 127.003 22.2636H129.339C130.683 22.2636 131.697 22.0823 132.379 21.7196C133.083 21.3569 133.585 20.7703 133.883 19.9596C134.203 19.1276 134.438 18.0076 134.587 16.5996H135.323C135.259 17.1756 135.227 17.9436 135.227 18.9036C135.227 19.3089 135.238 19.8956 135.259 20.6636C135.302 21.4103 135.366 22.1889 135.451 22.9996C134.363 22.9569 133.137 22.9356 131.771 22.9356C130.406 22.9143 129.19 22.9036 128.123 22.9036C127.654 22.9036 127.046 22.9036 126.299 22.9036C125.574 22.9036 124.785 22.9143 123.931 22.9356C123.078 22.9356 122.214 22.9463 121.339 22.9676C120.465 22.9676 119.633 22.9783 118.843 22.9996V22.3596C119.569 22.3169 120.113 22.2316 120.475 22.1036C120.859 21.9756 121.115 21.7196 121.243 21.3356C121.371 20.9516 121.435 20.3756 121.435 19.6076V3.73559C121.435 2.94626 121.371 2.37026 121.243 2.0076C121.115 1.62359 120.859 1.3676 120.475 1.2396C120.113 1.09026 119.569 1.00493 118.843 0.983595V0.343596C119.633 0.364929 120.465 0.386262 121.339 0.407595C122.214 0.407595 123.078 0.418261 123.931 0.439594C124.785 0.439594 125.574 0.439594 126.299 0.439594C127.046 0.439594 127.654 0.439594 128.123 0.439594C129.105 0.439594 130.214 0.439594 131.451 0.439594C132.71 0.418261 133.83 0.386262 134.811 0.343596ZM129.307 11.2876C129.307 11.2876 129.307 11.3943 129.307 11.6076C129.307 11.8209 129.307 11.9276 129.307 11.9276H123.451C123.451 11.9276 123.451 11.8209 123.451 11.6076C123.451 11.3943 123.451 11.2876 123.451 11.2876H129.307ZM130.235 7.06359C130.15 8.2796 130.107 9.20759 130.107 9.8476C130.129 10.4876 130.139 11.0743 130.139 11.6076C130.139 12.1409 130.15 12.7276 130.171 13.3676C130.193 14.0076 130.246 14.9356 130.331 16.1516H129.595C129.51 15.4689 129.403 14.8076 129.275 14.1676C129.169 13.5063 128.913 12.9729 128.507 12.5676C128.123 12.1409 127.462 11.9276 126.523 11.9276V11.2876C127.227 11.2876 127.761 11.1489 128.123 10.8716C128.507 10.5729 128.785 10.1996 128.955 9.75159C129.126 9.30359 129.243 8.84493 129.307 8.3756C129.371 7.88493 129.435 7.4476 129.499 7.06359H130.235Z"
                            fill="#1F1F1F" />
                    </svg>