 <svg width="50" height="49" viewBox="0 0 50 49" fill="none" xmlns="http://www.w3.org/2000/svg">
                        <path
                            d="M38.5809 22.8269C44.8874 22.8269 49.9997 17.7169 49.9997 11.4134C49.9997 5.10997 44.8874 0 38.5809 0C32.2745 0 27.1621 5.10997 27.1621 11.4134C27.1621 17.7169 32.2745 22.8269 38.5809 22.8269Z"
                            fill="#F41414" />
                        <path
                            d="M22.8336 20.4659V24.3323H0V0C6.307 0 12.0164 2.28834 16.147 5.99327C20.2817 9.6982 22.8336 14.8116 22.8336 20.4659Z"
                            fill="url(#paint0_linear_1300_525)" />
                        <path
                            d="M0 28.1986V24.3323H22.8336V48.6645C16.5266 48.6645 10.8172 46.3762 6.68655 42.6713C2.55591 38.9704 0 33.8529 0 28.1986Z"
                            fill="url(#paint1_linear_1300_525)" />
                        <path
                            d="M45.6721 25.8428H49.9844C49.9844 38.4468 39.7608 48.6656 27.1508 48.6656H22.8345C22.8345 42.3616 25.3904 36.6549 29.521 32.5262C33.6557 28.3975 39.3651 25.8428 45.6721 25.8428Z"
                            fill="url(#paint2_linear_1300_525)" />
                        <defs>
                            <linearGradient id="paint0_linear_1300_525" x1="0" y1="0" x2="22.7843" y2="10.9994"
                                gradientUnits="userSpaceOnUse">
                                <stop stop-color="#F41414" />
                                <stop offset="0.947433" stop-color="#E60000" />
                            </linearGradient>
                            <linearGradient id="paint1_linear_1300_525" x1="0" y1="0" x2="22.7843" y2="10.9994"
                                gradientUnits="userSpaceOnUse">
                                <stop stop-color="#F41414" />
                                <stop offset="0.947433" stop-color="#E60000" />
                            </linearGradient>
                            <linearGradient id="paint2_linear_1300_525" x1="22.7782" y1="47.5131" x2="49.9231"
                                y2="25.8911" gradientUnits="userSpaceOnUse">
                                <stop stop-color="#D30000" />
                                <stop offset="1" stop-color="#F41414" />
                            </linearGradient>
                        </defs>
                    </svg>