  <svg width="280" height="36" viewBox="0 0 280 36" fill="none"
                                xmlns="http://www.w3.org/2000/svg">
                                <path
                                    d="M13.0391 7.38202V29.0008H18.3141V19.967H35.0607V15.6682H18.3141V11.6809H35.5691V7.38202H13.0391Z"
                                    fill="#1F1F1F" />
                                <path d="M45.0539 7.38202H39.7789V29.0008H45.0539V7.38202Z" fill="#1F1F1F" />
                                <path
                                    d="M49.5067 7.38202V29.0008H54.7817V11.6809H55.5126L68.7637 29.0008H77.8202V7.38202H72.5452V24.702H71.8143L58.3725 7.38202H49.5067Z"
                                    fill="#1F1F1F" />
                                <path
                                    d="M80.9513 7.38202V11.6809H90.1667V29.0008H95.4417V11.6809H104.752V7.38202H80.9513Z"
                                    fill="#1F1F1F" />
                                <path
                                    d="M107.384 29.0008H129.914V24.92H112.659V19.967H129.374V16.1978H112.659V11.4628H129.914V7.38202H107.384V29.0008Z"
                                    fill="#1F1F1F" />
                                <path
                                    d="M153.842 21.5246C153.842 24.1413 152.761 24.702 149.615 24.702H142.847C139.828 24.702 138.589 24.079 138.589 20.777V15.419C138.589 12.0235 139.319 11.4317 142.847 11.4317H149.615C152.666 11.4317 153.842 12.3973 153.842 14.6714H159.117C159.117 8.59691 155.844 7.13281 150.632 7.13281H141.862C135.379 7.13281 133.313 8.90842 133.313 15.2321V21.3688C133.313 27.1629 135.252 29.0008 141.353 29.0008H151.172C157.687 29.0008 159.117 27.2875 159.148 21.5246H153.842Z"
                                    fill="#1F1F1F" />
                                <path
                                    d="M167.606 7.38202H162.331V29.0008H167.606V19.967H181.239V29.0008H186.514V7.38202H181.239V15.6682H167.606V7.38202Z"
                                    fill="#1F1F1F" />
                                <path
                                    d="M195.07 7.38202H189.795V29.0008H195.07V19.967H208.702V29.0008H213.977V7.38202H208.702V15.6682H195.07V7.38202Z"
                                    fill="#1F1F1F" />
                                <path
                                    d="M217.068 7.38202V21.3065C217.068 26.5399 219.674 29.0008 225.235 29.0008H234.927C240.615 29.0008 242.807 27.0071 242.807 21.3065V7.38202H237.532V20.777C237.532 23.7363 236.293 24.702 233.687 24.702H226.41C223.582 24.702 222.343 23.7986 222.343 20.8081V7.38202H217.068Z"
                                    fill="#1F1F1F" />
                                <path
                                    d="M251.307 11.4628H262.048C263.51 11.4628 264.241 12.3039 264.241 13.6122C264.241 15.0452 263.51 16.1355 262.08 16.1355H251.307V11.4628ZM246.032 29.0008H263.001C267.99 29.0008 270.374 27.2875 270.374 22.646C270.374 19.2505 268.976 18.316 266.783 17.5995C268.562 17.0388 269.516 16.2912 269.516 12.8023C269.516 8.81497 266.815 7.38202 261.921 7.38202H246.032V29.0008ZM251.307 19.967H262.08C264.813 19.967 265.099 20.7458 265.099 22.3968C265.099 24.297 264.717 24.92 261.889 24.92H251.307V19.967Z"
                                    fill="#1F1F1F" />
                                <path
                                    d="M80.9531 7.38202V11.6809H90.1685V29.0008H95.4436V11.6809H104.754V7.38202H80.9531Z"
                                    fill="#1F1F1F" />
                                <path
                                    d="M107.386 29.0008H129.916V24.92H112.661V19.967H129.375V16.1978H112.661V11.4628H129.916V7.38202H107.386V29.0008Z"
                                    fill="#1F1F1F" />
                                <path
                                    d="M153.843 21.5246C153.843 24.1413 152.763 24.702 149.617 24.702H142.849C139.83 24.702 138.59 24.079 138.59 20.777V15.419C138.59 12.0235 139.321 11.4317 142.849 11.4317H149.617C152.668 11.4317 153.843 12.3973 153.843 14.6714H159.118C159.118 8.59691 155.845 7.13281 150.634 7.13281H141.863C135.381 7.13281 133.315 8.90842 133.315 15.2321V21.3688C133.315 27.1629 135.254 29.0008 141.355 29.0008H151.174C157.688 29.0008 159.118 27.2875 159.15 21.5246H153.843Z"
                                    fill="#1F1F1F" />
                                <path
                                    d="M167.608 7.38202H162.333V29.0008H167.608V19.967H181.24V29.0008H186.515V7.38202H181.24V15.6682H167.608V7.38202Z"
                                    fill="#1F1F1F" />
                            </svg>