<svg width="120" height="120" viewBox="0 0 120 120" fill="none" xmlns="http://www.w3.org/2000/svg">
<g filter="url(#filter0_b_577_895)">
<rect y="120" width="120" height="120" rx="60" transform="rotate(-90 0 120)" fill="white" fill-opacity="0.2"/>
<path d="M34.2383 62.8789H41.7617C42.3477 62.8789 42.8164 62.8242 43.168 62.7148C43.5221 62.6029 43.7904 62.431 43.9727 62.1992C44.1576 61.9648 44.2826 61.668 44.3477 61.3086C44.4154 60.9492 44.4492 60.4701 44.4492 59.8711V56.9297C44.4492 56.1589 44.3737 55.5677 44.2227 55.1562C44.0742 54.7448 43.8073 54.4518 43.4219 54.2773C43.0365 54.1029 42.4766 54.0156 41.7422 54.0156H34.2383V62.8789ZM33.0898 52.8945H41.6641C42.4245 52.8945 43.0495 52.9596 43.5391 53.0898C44.0286 53.2174 44.4232 53.4323 44.7227 53.7344C45.0247 54.0365 45.2448 54.4453 45.3828 54.9609C45.5208 55.4766 45.5938 56.1328 45.6016 56.9297V59.8711C45.5885 60.8737 45.4648 61.6719 45.2305 62.2656C44.9987 62.8568 44.599 63.2943 44.0312 63.5781C43.4661 63.8594 42.6771 64 41.6641 64H33.0898V52.8945ZM48.6133 54.0312V58.3203H55.8125C56.5833 58.3203 57.1706 58.1328 57.5742 57.7578C57.9779 57.3828 58.1797 56.7591 58.1797 55.8867C58.1797 55.3451 57.9727 54.901 57.5586 54.5547C57.1445 54.2057 56.5898 54.0312 55.8945 54.0312H48.6133ZM48.6133 59.4414V64.0156H47.4609V52.9102H55.4609C56.3646 52.9102 57.1042 53.0443 57.6797 53.3125C58.2578 53.5781 58.6771 53.9505 58.9375 54.4297C59.2005 54.9062 59.332 55.4622 59.332 56.0977C59.332 56.6211 59.2591 57.0521 59.1133 57.3906C58.9701 57.7292 58.7917 57.9961 58.5781 58.1914C58.3646 58.3841 58.0938 58.5768 57.7656 58.7695C58.1589 58.8555 58.4883 59.1211 58.7539 59.5664C59.0221 60.0117 59.1562 60.625 59.1562 61.4062V64H58.0039V61.2812C58.0039 60.6016 57.8659 60.125 57.5898 59.8516C57.3138 59.5781 56.8711 59.4414 56.2617 59.4414H48.6133ZM61.6094 64H60.332L66.0898 52.8945H67.8516L73.6094 64H72.2656L70.8438 61.2148H63.0352L61.6094 64ZM63.6602 60.0977H70.25L66.957 53.6953L63.6602 60.0977ZM83.4961 64H78.5977C77.8294 64 77.1849 63.9232 76.6641 63.7695C76.1432 63.6133 75.7253 63.3776 75.4102 63.0625C75.0951 62.7474 74.8672 62.3568 74.7266 61.8906C74.5859 61.4219 74.5117 60.8555 74.5039 60.1914V56.832C74.5169 55.8372 74.6562 55.0456 74.9219 54.457C75.1901 53.8685 75.6211 53.4401 76.2148 53.1719C76.8086 52.9036 77.6029 52.7695 78.5977 52.7695H83.4961C84.8451 52.7695 85.849 53.0299 86.5078 53.5508C87.1667 54.0716 87.4961 54.8672 87.4961 55.9375H86.3438C86.3281 55.2656 86.1042 54.7565 85.6719 54.4102C85.2422 54.0612 84.5104 53.8867 83.4766 53.8867H78.582C77.8086 53.8867 77.2148 53.9766 76.8008 54.1562C76.3867 54.3333 76.0951 54.6315 75.9258 55.0508C75.7591 55.4674 75.6693 56.0612 75.6562 56.832V60.1914C75.6693 60.8919 75.7669 61.4349 75.9492 61.8203C76.1315 62.2057 76.431 62.4792 76.8477 62.6406C77.2643 62.7995 77.8424 62.8789 78.582 62.8789H83.4766C84.2214 62.8789 84.7904 62.8125 85.1836 62.6797C85.5794 62.5443 85.8659 62.2865 86.043 61.9062C86.2201 61.526 86.3086 60.9596 86.3086 60.207V59.8398H80.8555V58.7188H87.5273V59.5859C87.5273 60.4818 87.4648 61.2083 87.3398 61.7656C87.2148 62.3203 87.0052 62.7604 86.7109 63.0859C86.4193 63.4115 86.0143 63.6458 85.4961 63.7891C84.9805 63.9297 84.3138 64 83.4961 64Z" fill="#1F1F1F"/>
<path d="M31 28.5L50 28.5M31 28.5L36.5 34M31 28.5L36.5 23" stroke="#1F1F1F"/>
<path d="M89 92.5L70 92.5M89 92.5L83.5 87M89 92.5L83.5 98" stroke="#1F1F1F"/>
<rect x="0.5" y="119.5" width="119" height="119" rx="59.5" transform="rotate(-90 0.5 119.5)" stroke="#1F1F1F"/>
</g>
<defs>
<filter id="filter0_b_577_895" x="-7" y="-7" width="134" height="134" filterUnits="userSpaceOnUse" color-interpolation-filters="sRGB">
<feFlood flood-opacity="0" result="BackgroundImageFix"/>
<feGaussianBlur in="BackgroundImageFix" stdDeviation="3.5"/>
<feComposite in2="SourceAlpha" operator="in" result="effect1_backgroundBlur_577_895"/>
<feBlend mode="normal" in="SourceGraphic" in2="effect1_backgroundBlur_577_895" result="shape"/>
</filter>
</defs>
</svg>
