<svg width="280" height="36" viewBox="0 0 280 36" fill="none" xmlns="http://www.w3.org/2000/svg">
<path d="M13.0391 7.38104V28.9998H18.3141V19.966H35.0607V15.6672H18.3141V11.6799H35.5691V7.38104H13.0391Z" fill="#1F1F1F"/>
<path d="M45.0539 7.38104H39.7789V28.9998H45.0539V7.38104Z" fill="#1F1F1F"/>
<path d="M49.5067 7.38104V28.9998H54.7817V11.6799H55.5126L68.7637 28.9998H77.8202V7.38104H72.5452V24.701H71.8143L58.3725 7.38104H49.5067Z" fill="#1F1F1F"/>
<path d="M80.9513 7.38104V11.6799H90.1667V28.9998H95.4417V11.6799H104.752V7.38104H80.9513Z" fill="#1F1F1F"/>
<path d="M107.384 28.9998H129.914V24.9191H112.659V19.966H129.374V16.1968H112.659V11.4618H129.914V7.38104H107.384V28.9998Z" fill="#1F1F1F"/>
<path d="M153.842 21.5236C153.842 24.1403 152.761 24.701 149.615 24.701H142.847C139.828 24.701 138.589 24.078 138.589 20.776V15.418C138.589 12.0225 139.319 11.4307 142.847 11.4307H149.615C152.666 11.4307 153.842 12.3964 153.842 14.6704H159.117C159.117 8.59593 155.844 7.13184 150.632 7.13184H141.862C135.379 7.13184 133.313 8.90744 133.313 15.2311V21.3678C133.313 27.1619 135.252 28.9998 141.353 28.9998H151.172C157.687 28.9998 159.117 27.2865 159.148 21.5236H153.842Z" fill="#1F1F1F"/>
<path d="M167.606 7.38104H162.331V28.9998H167.606V19.966H181.239V28.9998H186.514V7.38104H181.239V15.6672H167.606V7.38104Z" fill="#1F1F1F"/>
<path d="M195.07 7.38104H189.795V28.9998H195.07V19.966H208.702V28.9998H213.977V7.38104H208.702V15.6672H195.07V7.38104Z" fill="#1F1F1F"/>
<path d="M217.068 7.38104V21.3055C217.068 26.5389 219.674 28.9998 225.235 28.9998H234.927C240.615 28.9998 242.807 27.0062 242.807 21.3055V7.38104H237.532V20.776C237.532 23.7353 236.293 24.701 233.687 24.701H226.41C223.582 24.701 222.343 23.7976 222.343 20.8071V7.38104H217.068Z" fill="#1F1F1F"/>
<path d="M251.307 11.4618H262.048C263.51 11.4618 264.241 12.3029 264.241 13.6112C264.241 15.0442 263.51 16.1345 262.08 16.1345H251.307V11.4618ZM246.032 28.9998H263.001C267.99 28.9998 270.374 27.2865 270.374 22.645C270.374 19.2496 268.976 18.315 266.783 17.5986C268.562 17.0379 269.516 16.2902 269.516 12.8013C269.516 8.81399 266.815 7.38104 261.921 7.38104H246.032V28.9998ZM251.307 19.966H262.08C264.813 19.966 265.099 20.7448 265.099 22.3958C265.099 24.296 264.717 24.9191 261.889 24.9191H251.307V19.966Z" fill="#1F1F1F"/>
<path d="M80.9531 7.38104V11.6799H90.1685V28.9998H95.4436V11.6799H104.754V7.38104H80.9531Z" fill="#1F1F1F"/>
<path d="M107.386 28.9998H129.916V24.9191H112.661V19.966H129.375V16.1968H112.661V11.4618H129.916V7.38104H107.386V28.9998Z" fill="#1F1F1F"/>
<path d="M153.843 21.5236C153.843 24.1403 152.763 24.701 149.617 24.701H142.849C139.83 24.701 138.59 24.078 138.59 20.776V15.418C138.59 12.0225 139.321 11.4307 142.849 11.4307H149.617C152.668 11.4307 153.843 12.3964 153.843 14.6704H159.118C159.118 8.59593 155.845 7.13184 150.634 7.13184H141.863C135.381 7.13184 133.315 8.90744 133.315 15.2311V21.3678C133.315 27.1619 135.254 28.9998 141.355 28.9998H151.174C157.688 28.9998 159.118 27.2865 159.15 21.5236H153.843Z" fill="#1F1F1F"/>
<path d="M167.608 7.38104H162.333V28.9998H167.608V19.966H181.24V28.9998H186.515V7.38104H181.24V15.6672H167.608V7.38104Z" fill="#1F1F1F"/>
</svg>
