<svg width="119" height="12" viewBox="0 0 119 12" fill="none" xmlns="http://www.w3.org/2000/svg">
<path d="M0.960938 0.690522V11.4999H3.37238V6.98302H11.028V4.8336H3.37238V2.83994H11.2604V0.690522H0.960938Z" fill="#1F1F1F"/>
<path d="M15.5963 0.690522H13.1849V11.4999H15.5963V0.690522Z" fill="#1F1F1F"/>
<path d="M17.6318 0.690522V11.4999H20.0433V2.83994H20.3774L26.4351 11.4999H30.5752V0.690522H28.1637V9.3505H27.8296L21.6848 0.690522H17.6318Z" fill="#1F1F1F"/>
<path d="M32.0065 0.690522V2.83994H36.2193V11.4999H38.6307V2.83994H42.8871V0.690522H32.0065Z" fill="#1F1F1F"/>
<path d="M44.0899 11.4999H54.3894V9.45953H46.5014V6.98302H54.1424V5.09839H46.5014V2.73091H54.3894V0.690522H44.0899V11.4999Z" fill="#1F1F1F"/>
<path d="M65.3278 7.7618C65.3278 9.07014 64.8339 9.3505 63.3957 9.3505H60.3015C58.9215 9.3505 58.355 9.03899 58.355 7.38799V4.709C58.355 3.01127 58.6891 2.71534 60.3015 2.71534H63.3957C64.7903 2.71534 65.3278 3.19818 65.3278 4.33519H67.7392C67.7392 1.29797 66.243 0.565918 63.8606 0.565918H59.8512C56.8878 0.565918 55.9435 1.45372 55.9435 4.61555V7.68392C55.9435 10.581 56.8297 11.4999 59.6188 11.4999H64.1076C67.0855 11.4999 67.7392 10.6433 67.7538 7.7618H65.3278Z" fill="#1F1F1F"/>
<path d="M71.6202 0.690522H69.2087V11.4999H71.6202V6.98302H77.8521V11.4999H80.2636V0.690522H77.8521V4.8336H71.6202V0.690522Z" fill="#1F1F1F"/>
<path d="M84.175 0.690522H81.7636V11.4999H84.175V6.98302H90.407V11.4999H92.8184V0.690522H90.407V4.8336H84.175V0.690522Z" fill="#1F1F1F"/>
<path d="M94.2313 0.690522V7.65277C94.2313 10.2695 95.4224 11.4999 97.9646 11.4999H102.395C104.996 11.4999 105.998 10.5031 105.998 7.65277V0.690522H103.586V7.38799C103.586 8.86766 103.02 9.3505 101.829 9.3505H98.5021C97.2092 9.3505 96.6427 8.89881 96.6427 7.40356V0.690522H94.2313Z" fill="#1F1F1F"/>
<path d="M109.884 2.73091H114.794C115.462 2.73091 115.796 3.15145 115.796 3.80562C115.796 4.52209 115.462 5.06724 114.808 5.06724H109.884V2.73091ZM107.472 11.4999H115.229C117.51 11.4999 118.6 10.6433 118.6 8.32252C118.6 6.62479 117.96 6.15752 116.958 5.79929C117.772 5.51893 118.207 5.14511 118.207 3.40066C118.207 1.40699 116.973 0.690522 114.736 0.690522H107.472V11.4999ZM109.884 6.98302H114.808C116.057 6.98302 116.188 7.37241 116.188 8.19791C116.188 9.14802 116.014 9.45953 114.721 9.45953H109.884V6.98302Z" fill="#1F1F1F"/>
</svg>
